<?xml version="1.0" encoding="utf-8"?>
<!-- Generator: Adobe Illustrator 16.0.0, SVG Export Plug-In . SVG Version: 6.00 Build 0)  -->
<!DOCTYPE svg PUBLIC "-//W3C//DTD SVG 1.1//EN" "http://www.w3.org/Graphics/SVG/1.1/DTD/svg11.dtd">
<svg version="1.1" id="Capa_1" xmlns="http://www.w3.org/2000/svg" xmlns:xlink="http://www.w3.org/1999/xlink" x="0px" y="0px"
	 width="337px" height="75px" viewBox="0 0 337 75" enable-background="new 0 0 337 75" xml:space="preserve">
<g>
	<path fill="none" d="M6.329,24.911c-0.927,1.515-1.417,9.749,1.468,14.647c0.936,1.587,1.993,2.146,3.667,1.795l1.419-16.944
		C9.828,24.331,7.117,24.519,6.329,24.911z"/>
	<path fill="#D85D5D" d="M33.591,19.747c-0.043,0.017-0.093,0.023-0.14,0.035C33.498,19.771,33.548,19.764,33.591,19.747z"/>
	<path fill="#D85D5D" d="M32.713,19.813c-0.109-0.015-0.225-0.038-0.343-0.064C32.488,19.775,32.604,19.799,32.713,19.813z"/>
	<path fill="#D85D5D" d="M33.062,19.843c0.025,0,0.044-0.01,0.069-0.012c-0.079,0.004-0.16,0.003-0.245-0.004
		C32.944,19.832,33.007,19.843,33.062,19.843z"/>
	<path fill="#D85D5D" d="M32.213,19.716c-0.173-0.045-0.353-0.099-0.54-0.162C31.861,19.617,32.041,19.671,32.213,19.716z"/>
	<path fill="#D85D5D" d="M31.537,19.503c-0.147-0.054-0.296-0.109-0.45-0.172C31.24,19.394,31.389,19.449,31.537,19.503z"/>
	<path fill="#D85D5D" d="M39.754,29.388c-0.021-0.002-0.041-0.007-0.062-0.01C39.713,29.381,39.733,29.386,39.754,29.388z"/>
	<path fill="#D85D5D" d="M38.518,29.024c-0.036-0.02-0.071-0.041-0.106-0.062C38.447,28.983,38.482,29.005,38.518,29.024z"/>
	<path fill="#D85D5D" d="M24.794,16.749c-0.23,0-0.477,0.018-0.729,0.039C24.318,16.767,24.564,16.749,24.794,16.749z"/>
	<path fill="#D85D5D" d="M25.896,16.978c-0.065-0.021-0.131-0.044-0.194-0.062C25.765,16.934,25.831,16.956,25.896,16.978z"/>
	<path fill="#D85D5D" d="M27.039,17.431c-0.068-0.029-0.134-0.058-0.201-0.087C26.905,17.373,26.971,17.401,27.039,17.431z"/>
	<path fill="#D85D5D" d="M26.453,17.183c-0.072-0.029-0.142-0.057-0.211-0.082C26.311,17.126,26.381,17.153,26.453,17.183z"/>
	<path fill="#D85D5D" d="M27.646,17.711c-0.04-0.019-0.079-0.036-0.118-0.056C27.567,17.675,27.605,17.692,27.646,17.711z"/>
	<path fill="#D85D5D" d="M25.371,16.829c-0.051-0.012-0.104-0.025-0.154-0.035C25.266,16.804,25.32,16.817,25.371,16.829z"/>
	<path fill="#D85D5D" d="M40.391,29.423c0.026,0,0.051-0.003,0.078-0.004c-0.044,0.001-0.089,0.001-0.134,0
		C40.353,29.419,40.373,29.423,40.391,29.423z"/>
	<path fill="#D85D5D" d="M29.526,18.627c-0.116-0.056-0.232-0.112-0.349-0.169C29.293,18.515,29.41,18.571,29.526,18.627z"/>
	<path fill="#D85D5D" d="M30.837,19.227c-0.123-0.052-0.245-0.104-0.37-0.16C30.592,19.122,30.715,19.175,30.837,19.227z"/>
	<path fill="#D85D5D" d="M30.187,18.938c-0.12-0.055-0.241-0.111-0.362-0.169C29.946,18.827,30.066,18.884,30.187,18.938z"/>
	<path fill="#D85D5D" d="M39.161,29.272c-0.036-0.009-0.072-0.017-0.107-0.027C39.089,29.256,39.125,29.264,39.161,29.272z"/>
	<path fill="#D85D5D" d="M49.798,30.737c-0.047,0.201-0.097,0.401-0.15,0.599C49.702,31.139,49.751,30.938,49.798,30.737z"/>
	<path fill="#D85D5D" d="M49.948,30.083c-0.045,0.203-0.091,0.408-0.139,0.614C49.857,30.491,49.903,30.286,49.948,30.083z"/>
	<path fill="#D85D5D" d="M49.352,32.233c-0.039,0.1-0.075,0.205-0.118,0.301C49.277,32.438,49.312,32.334,49.352,32.233z"/>
	<path fill="#D85D5D" d="M49.558,31.631c-0.032,0.108-0.062,0.219-0.098,0.324C49.496,31.85,49.526,31.739,49.558,31.631z"/>
	<path fill="#D85D5D" d="M40.993,29.399c-0.013,0.002-0.025,0.002-0.037,0.003C40.969,29.401,40.98,29.401,40.993,29.399z"/>
	<path fill="#D85D5D" d="M50.406,28.339c-0.058,0.156-0.111,0.328-0.161,0.508C50.295,28.667,50.348,28.495,50.406,28.339z"/>
	<path fill="#D85D5D" d="M51.114,27.343c-0.081,0.039-0.15,0.104-0.219,0.169C50.964,27.446,51.034,27.382,51.114,27.343z"/>
	<path fill="#D85D5D" d="M50.599,27.899c-0.04,0.073-0.073,0.164-0.109,0.247C50.525,28.063,50.559,27.973,50.599,27.899z"/>
	<path fill="#D85D5D" d="M50.242,28.856c-0.102,0.365-0.191,0.769-0.284,1.186C50.05,29.625,50.14,29.222,50.242,28.856z"/>
	<path fill="#D85D5D" d="M42.829,29.335c-0.102-0.026-0.226-0.037-0.363-0.039C42.604,29.298,42.727,29.308,42.829,29.335z"/>
	<path fill="#D85D5D" d="M43.099,29.497c-0.051-0.072-0.135-0.117-0.236-0.149C42.964,29.38,43.048,29.425,43.099,29.497z"/>
	<path fill="#D85D5D" d="M41.926,29.32c-0.14,0.012-0.287,0.025-0.441,0.04C41.64,29.346,41.786,29.332,41.926,29.32z"/>
	<path fill="#D85D5D" d="M47.146,34.124c0.11,0,0.204-0.026,0.305-0.04c-0.103,0.014-0.197,0.04-0.309,0.04
		C47.143,34.124,47.144,34.124,47.146,34.124z"/>
	<path fill="#D85D5D" d="M48.443,33.642c-0.075,0.064-0.144,0.136-0.227,0.188C48.299,33.777,48.368,33.706,48.443,33.642z"/>
	<path fill="#D85D5D" d="M47.983,33.934c-0.085,0.039-0.163,0.088-0.257,0.113C47.819,34.021,47.898,33.973,47.983,33.934z"/>
	<path fill="#D85D5D" d="M48.812,33.246c-0.062,0.083-0.12,0.173-0.189,0.246C48.692,33.419,48.75,33.329,48.812,33.246z"/>
	<path fill="#D85D5D" d="M49.106,32.775c-0.049,0.093-0.093,0.192-0.147,0.278C49.013,32.968,49.057,32.868,49.106,32.775z"/>
	<path fill="#D85D5D" d="M21.427,17.01c-0.175-0.003-0.345-0.014-0.51-0.032C21.082,16.996,21.252,17.007,21.427,17.01z"/>
	<path fill="#D85D5D" d="M19.77,16.593c-0.096,0.203-0.217,0.375-0.352,0.53C19.553,16.968,19.674,16.796,19.77,16.593z"/>
	<path fill="#D85D5D" d="M42.013,29.313c0.134-0.012,0.256-0.017,0.372-0.018C42.269,29.297,42.146,29.303,42.013,29.313z"/>
	<path fill="#D85D5D" d="M19.274,17.261c-0.099,0.095-0.201,0.186-0.314,0.262C19.073,17.446,19.175,17.355,19.274,17.261z"/>
	<path fill="#D85D5D" d="M20.753,16.952c-0.132-0.021-0.258-0.051-0.38-0.087C20.495,16.901,20.622,16.931,20.753,16.952z"/>
	<path fill="#D85D5D" d="M20.222,16.818c-0.161-0.06-0.315-0.13-0.452-0.226C19.907,16.688,20.061,16.759,20.222,16.818z"/>
	<path fill="#D85D5D" d="M18.76,17.64c-0.113,0.062-0.229,0.119-0.353,0.168C18.531,17.759,18.647,17.702,18.76,17.64z"/>
	<path fill="#D85D5D" d="M17.537,18.049c-0.163,0.028-0.331,0.05-0.501,0.067C17.206,18.099,17.374,18.077,17.537,18.049z"/>
	<path fill="#D85D5D" d="M18.178,17.891c-0.132,0.042-0.268,0.077-0.408,0.108C17.91,17.968,18.046,17.933,18.178,17.891z"/>
	<path fill="#D85D5D" d="M21.502,17.013c0.041,0,0.085-0.006,0.127-0.006c-0.048,0-0.098,0.006-0.145,0.005
		C21.49,17.012,21.496,17.013,21.502,17.013z"/>
	<path fill="#D85D5D" d="M15.498,18.181c0.151,0,0.301-0.002,0.452-0.005c-0.192,0.003-0.385,0.005-0.577,0.005
		C15.414,18.181,15.456,18.181,15.498,18.181z"/>
	<path fill="#D85D5D" d="M16.853,18.137c-0.234,0.019-0.474,0.03-0.716,0.037C16.379,18.168,16.619,18.155,16.853,18.137z"/>
	<path fill="#D85D5D" d="M50.641,27.838c0.06-0.103,0.121-0.2,0.19-0.277C50.761,27.638,50.7,27.735,50.641,27.838z"/>
	<path fill="#D85D5D" d="M23.776,16.817c-0.208,0.021-0.417,0.043-0.63,0.068C23.359,16.86,23.568,16.839,23.776,16.817z"/>
	<path fill="#F85D5D" d="M54.321,57.434l-2.049-24.485c-0.709,2.008-2.084,4.176-5.137,4.176c-4.382-0.009-5.323-2.905-5.775-4.298
		c-0.048-0.149-0.095-0.294-0.144-0.435c-0.257,0.018-0.534,0.031-0.825,0.031c-1.868,0-3.402-0.56-4.557-1.66
		c-1.61-1.532-2.674-4.416-3.898-8.026c-0.001-0.003-0.002-0.005-0.003-0.009c-1.44-0.277-2.956-1.023-4.541-1.804
		c-0.87-0.428-2.171-1.069-2.675-1.173c-0.3,0.007-0.71,0.055-1.143,0.105c-0.63,0.072-1.345,0.156-2.073,0.156
		c-0.271,0-0.531-0.012-0.781-0.035c-1.74,1.203-3.966,1.203-5.223,1.203l-0.491-0.002l-0.447-0.001
		c-0.679,0-2.014-0.11-3.321-0.804c-3.118,0.014-6.314,0.363-7.639,1.594C0.84,24.528,0.763,35.499,4.351,41.589
		c1.512,2.566,3.565,3.853,6.133,3.853c0.208,0,0.427-0.03,0.642-0.047l-1.008,12.039c0,0-8.745,4.736,22.103,4.736
		C63.065,62.17,54.321,57.434,54.321,57.434z M11.464,41.354c-1.674,0.352-2.731-0.208-3.667-1.795
		C4.911,34.66,5.401,26.426,6.329,24.911c0.788-0.393,3.499-0.58,6.554-0.502L11.464,41.354z"/>
	<path fill="#D85D5D" d="M22.592,16.944c-0.108,0.011-0.215,0.021-0.323,0.03C22.376,16.966,22.484,16.955,22.592,16.944z"/>
	<path fill="#F85D5D" d="M52.422,13.222c-0.903-2.688-2.299-5.135-5.136-5.135c-1.188,0-2.267,0.418-3.135,1.094
		c-0.742-3.317-3.699-5.798-7.241-5.798c-2.207,0-4.181,0.969-5.541,2.495c-1.244-2.363-3.719-3.979-6.575-3.979
		c-3.769,0-6.873,2.809-7.354,6.444c-0.485-0.15-0.992-0.256-1.528-0.256c-2.836,0-5.136,2.299-5.136,5.135
		c0,2.411,0.695,4.289,2.641,4.803c0.344,0.092,0.715,0.153,1.142,0.153c0.267,0,0.54,0.003,0.813,0.003
		c0.192,0,0.385-0.002,0.577-0.005c0.063-0.001,0.126-0.001,0.188-0.002c0.242-0.007,0.481-0.019,0.716-0.037
		c0.062-0.005,0.121-0.015,0.183-0.021c0.17-0.018,0.338-0.039,0.501-0.067c0.08-0.014,0.156-0.033,0.233-0.05
		c0.14-0.031,0.276-0.066,0.408-0.108c0.078-0.024,0.154-0.054,0.229-0.083c0.124-0.049,0.24-0.105,0.353-0.168
		c0.068-0.037,0.136-0.074,0.199-0.117c0.113-0.076,0.215-0.167,0.314-0.262c0.048-0.047,0.101-0.087,0.145-0.138
		c0.135-0.155,0.255-0.327,0.352-0.53c0.137,0.096,0.291,0.166,0.452,0.226c0.049,0.019,0.1,0.032,0.151,0.047
		c0.122,0.036,0.249,0.065,0.38,0.087c0.054,0.009,0.108,0.019,0.164,0.025c0.165,0.019,0.334,0.029,0.51,0.032
		c0.019,0,0.038,0.002,0.057,0.002c0.047,0.001,0.097-0.005,0.145-0.005c0.21-0.004,0.423-0.014,0.64-0.032
		c0.107-0.009,0.215-0.02,0.323-0.03c0.185-0.02,0.37-0.037,0.554-0.059c0.213-0.025,0.423-0.047,0.63-0.068
		c0.097-0.011,0.195-0.021,0.289-0.029c0.253-0.021,0.499-0.039,0.729-0.039c0.129,0,0.272,0.018,0.422,0.045
		c0.049,0.01,0.103,0.023,0.154,0.035c0.107,0.024,0.216,0.051,0.331,0.086c0.063,0.019,0.129,0.041,0.194,0.062
		c0.112,0.037,0.227,0.078,0.345,0.123c0.07,0.025,0.14,0.053,0.211,0.082c0.126,0.051,0.255,0.104,0.386,0.161
		c0.067,0.029,0.133,0.058,0.201,0.087c0.16,0.072,0.323,0.147,0.488,0.225c0.04,0.02,0.078,0.037,0.118,0.056
		c0.499,0.237,1.015,0.494,1.531,0.747c0.117,0.057,0.233,0.113,0.349,0.169c0.1,0.048,0.199,0.096,0.299,0.143
		c0.121,0.058,0.242,0.114,0.362,0.169c0.094,0.044,0.188,0.086,0.281,0.128c0.125,0.056,0.247,0.108,0.37,0.16
		c0.083,0.035,0.167,0.071,0.249,0.104c0.154,0.062,0.303,0.118,0.45,0.172c0.045,0.016,0.093,0.035,0.137,0.051
		c0.187,0.063,0.367,0.117,0.54,0.162c0.054,0.014,0.104,0.021,0.157,0.033c0.118,0.026,0.233,0.05,0.343,0.064
		c0.06,0.008,0.116,0.01,0.173,0.014c0.085,0.007,0.166,0.008,0.245,0.004c0.115-0.004,0.22-0.023,0.32-0.049
		c0.047-0.012,0.097-0.019,0.14-0.035c0.134-0.054,0.255-0.126,0.35-0.233c0.648,1.233,2.228,7.426,3.961,9.075
		c0.16,0.152,0.332,0.271,0.51,0.374c0.035,0.021,0.07,0.042,0.106,0.062c0.173,0.091,0.352,0.165,0.536,0.221
		c0.036,0.011,0.072,0.019,0.107,0.027c0.175,0.048,0.353,0.084,0.532,0.105c0.021,0.003,0.041,0.008,0.062,0.01
		c0.193,0.021,0.388,0.03,0.58,0.031c0.045,0.001,0.09,0.001,0.134,0c0.165-0.001,0.328-0.006,0.487-0.017
		c0.012-0.001,0.024-0.001,0.037-0.003c0.169-0.011,0.333-0.025,0.492-0.039c0.154-0.015,0.301-0.028,0.441-0.04
		c0.028-0.003,0.06-0.005,0.087-0.007c0.134-0.011,0.256-0.017,0.372-0.018c0.016-0.001,0.036-0.003,0.051-0.003
		c0.011,0,0.018,0.003,0.03,0.003c0.138,0.002,0.262,0.013,0.363,0.039c0.012,0.003,0.022,0.009,0.034,0.013
		c0.102,0.032,0.185,0.077,0.236,0.149c1.776,2.513,0.66,4.62,4.042,4.627c0.112,0,0.207-0.026,0.309-0.04
		c0.091-0.013,0.192-0.013,0.276-0.037c0.094-0.025,0.172-0.074,0.257-0.113c0.077-0.035,0.162-0.059,0.233-0.104
		c0.083-0.053,0.152-0.124,0.227-0.188c0.06-0.051,0.125-0.092,0.18-0.149c0.069-0.073,0.127-0.163,0.189-0.246
		c0.048-0.065,0.103-0.122,0.147-0.192c0.054-0.086,0.099-0.186,0.147-0.278c0.042-0.081,0.089-0.155,0.128-0.241
		c0.043-0.096,0.079-0.201,0.118-0.301c0.036-0.094,0.076-0.182,0.108-0.278c0.036-0.105,0.066-0.216,0.098-0.324
		c0.03-0.099,0.062-0.194,0.09-0.295c0.054-0.197,0.103-0.397,0.15-0.599c0.003-0.014,0.007-0.026,0.01-0.04
		c0.048-0.206,0.094-0.411,0.139-0.614c0.003-0.014,0.006-0.027,0.01-0.041c0.093-0.417,0.183-0.82,0.284-1.186
		c0.001-0.004,0.002-0.006,0.003-0.01c0.05-0.18,0.104-0.352,0.161-0.508c0.025-0.07,0.056-0.127,0.084-0.192
		c0.036-0.083,0.069-0.174,0.109-0.247c0.013-0.023,0.029-0.039,0.042-0.062c0.06-0.103,0.121-0.2,0.19-0.277
		c0.02-0.021,0.044-0.03,0.064-0.049c0.069-0.065,0.139-0.13,0.219-0.169c0.104-0.05,0.219-0.076,0.345-0.076
		c0.117,0,0.227-0.025,0.332-0.061C54.231,26.386,53.496,16.419,52.422,13.222z"/>
	<path fill="#FFFFFF" d="M16.137,18.174c-0.062,0.001-0.125,0.001-0.188,0.002C16.012,18.175,16.075,18.175,16.137,18.174z"/>
	<path fill="#FFFFFF" d="M48.216,33.83c-0.071,0.045-0.156,0.068-0.233,0.104C48.06,33.898,48.145,33.875,48.216,33.83z"/>
	<path fill="#FFFFFF" d="M42.863,29.348c-0.012-0.004-0.022-0.01-0.034-0.013C42.841,29.338,42.851,29.344,42.863,29.348z"/>
	<path fill="#FFFFFF" d="M50.641,27.838c-0.013,0.022-0.029,0.038-0.042,0.062C50.611,27.876,50.627,27.86,50.641,27.838z"/>
	<path fill="#FFFFFF" d="M49.958,30.042c-0.003,0.014-0.006,0.027-0.01,0.041C49.951,30.069,49.954,30.056,49.958,30.042z"/>
	<path fill="#FFFFFF" d="M51.459,27.267c-0.126,0-0.241,0.026-0.345,0.076C51.218,27.293,51.333,27.267,51.459,27.267z"/>
	<path fill="#FFFFFF" d="M47.726,34.047c-0.084,0.024-0.185,0.024-0.276,0.037C47.542,34.071,47.642,34.071,47.726,34.047z"/>
	<path fill="#FFFFFF" d="M25.217,16.794c-0.15-0.027-0.293-0.045-0.422-0.045C24.923,16.749,25.066,16.767,25.217,16.794z"/>
	<path fill="#FFFFFF" d="M50.49,28.146c-0.028,0.065-0.059,0.122-0.084,0.192C50.431,28.269,50.462,28.212,50.49,28.146z"/>
	<path fill="#FFFFFF" d="M42.013,29.313c-0.027,0.002-0.059,0.004-0.087,0.007C41.954,29.317,41.985,29.315,42.013,29.313z"/>
	<path fill="#FFFFFF" d="M49.648,31.336c-0.027,0.101-0.06,0.196-0.09,0.295C49.588,31.532,49.621,31.437,49.648,31.336z"/>
	<path fill="#FFFFFF" d="M49.809,30.697c-0.003,0.014-0.007,0.026-0.01,0.04C49.802,30.724,49.806,30.711,49.809,30.697z"/>
	<path fill="#FFFFFF" d="M49.46,31.955c-0.033,0.097-0.073,0.185-0.108,0.278C49.387,32.14,49.427,32.052,49.46,31.955z"/>
	<path fill="#FFFFFF" d="M50.831,27.561c0.019-0.021,0.044-0.03,0.064-0.049C50.875,27.53,50.851,27.54,50.831,27.561z"/>
	<path fill="#FFFFFF" d="M48.623,33.492c-0.054,0.058-0.12,0.099-0.18,0.149C48.502,33.591,48.568,33.55,48.623,33.492z"/>
	<path fill="#FFFFFF" d="M15.372,18.181c-0.273,0-0.546-0.003-0.813-0.003C14.827,18.178,15.099,18.181,15.372,18.181z"/>
	<path fill="#FFFFFF" d="M48.958,33.054c-0.044,0.07-0.099,0.127-0.147,0.192C48.86,33.181,48.914,33.124,48.958,33.054z"/>
	<path fill="#FFFFFF" d="M49.234,32.534c-0.039,0.086-0.086,0.16-0.128,0.241C49.148,32.694,49.195,32.62,49.234,32.534z"/>
	<path fill="#FFFFFF" d="M42.385,29.296c0.028-0.001,0.054,0,0.081,0c-0.012,0-0.019-0.003-0.03-0.003
		C42.42,29.293,42.4,29.295,42.385,29.296z"/>
	<path fill="#FFFFFF" d="M50.245,28.847c-0.001,0.004-0.002,0.006-0.003,0.01C50.243,28.853,50.244,28.851,50.245,28.847z"/>
	<path fill="#FFFFFF" d="M17.036,18.116c-0.062,0.006-0.12,0.016-0.183,0.021C16.916,18.132,16.974,18.122,17.036,18.116z"/>
	<path fill="#FFFFFF" d="M29.825,18.77c-0.1-0.047-0.199-0.095-0.299-0.143C29.626,18.675,29.725,18.723,29.825,18.77z"/>
	<path fill="#FFFFFF" d="M22.269,16.975c-0.217,0.019-0.43,0.028-0.64,0.032C21.839,17.003,22.052,16.993,22.269,16.975z"/>
	<path fill="#FFFFFF" d="M29.177,18.458c-0.516-0.253-1.033-0.51-1.531-0.747C28.144,17.948,28.661,18.205,29.177,18.458z"/>
	<path fill="#FFFFFF" d="M21.484,17.012c-0.019,0-0.038-0.002-0.057-0.002C21.446,17.01,21.465,17.012,21.484,17.012z"/>
	<path fill="#FFFFFF" d="M17.77,17.999c-0.077,0.017-0.153,0.036-0.233,0.05C17.617,18.035,17.693,18.017,17.77,17.999z"/>
	<path fill="#FFFFFF" d="M30.468,19.066c-0.093-0.042-0.187-0.084-0.281-0.128C30.281,18.982,30.375,19.024,30.468,19.066z"/>
	<path fill="#FFFFFF" d="M20.917,16.978c-0.056-0.007-0.11-0.017-0.164-0.025C20.808,16.961,20.861,16.971,20.917,16.978z"/>
	<path fill="#FFFFFF" d="M31.086,19.331c-0.082-0.033-0.166-0.069-0.249-0.104C30.92,19.262,31.005,19.298,31.086,19.331z"/>
	<path fill="#FFFFFF" d="M25.702,16.915c-0.115-0.035-0.224-0.062-0.331-0.086C25.478,16.854,25.586,16.88,25.702,16.915z"/>
	<path fill="#FFFFFF" d="M24.065,16.788c-0.094,0.008-0.192,0.019-0.289,0.029C23.873,16.807,23.97,16.796,24.065,16.788z"/>
	<path fill="#FFFFFF" d="M26.241,17.101c-0.118-0.045-0.233-0.086-0.345-0.123C26.008,17.015,26.123,17.056,26.241,17.101z"/>
	<path fill="#FFFFFF" d="M23.146,16.886c-0.184,0.021-0.369,0.039-0.554,0.059C22.777,16.925,22.961,16.907,23.146,16.886z"/>
	<path fill="#FFFFFF" d="M27.527,17.655c-0.165-0.077-0.328-0.152-0.488-0.225C27.199,17.503,27.362,17.578,27.527,17.655z"/>
	<path fill="#FFFFFF" d="M26.838,17.344c-0.131-0.057-0.26-0.11-0.386-0.161C26.579,17.233,26.707,17.287,26.838,17.344z"/>
	<path fill="#FFFFFF" d="M31.674,19.554c-0.044-0.016-0.092-0.035-0.137-0.051C31.582,19.519,31.629,19.538,31.674,19.554z"/>
	<path fill="#FFFFFF" d="M39.693,29.378c-0.179-0.021-0.357-0.058-0.532-0.105C39.336,29.32,39.514,29.356,39.693,29.378z"/>
	<path fill="#FFFFFF" d="M18.959,17.522c-0.063,0.043-0.131,0.08-0.199,0.117C18.828,17.603,18.896,17.565,18.959,17.522z"/>
	<path fill="#FFFFFF" d="M39.053,29.245c-0.184-0.056-0.362-0.13-0.536-0.221C38.691,29.116,38.87,29.189,39.053,29.245z"/>
	<path fill="#FFFFFF" d="M40.334,29.419c-0.192-0.001-0.387-0.01-0.58-0.031C39.948,29.409,40.142,29.418,40.334,29.419z"/>
	<path fill="#FFFFFF" d="M18.407,17.808c-0.075,0.029-0.151,0.059-0.229,0.083C18.256,17.866,18.332,17.837,18.407,17.808z"/>
	<path fill="#FFFFFF" d="M41.485,29.36c-0.158,0.014-0.323,0.028-0.492,0.039C41.163,29.389,41.326,29.374,41.485,29.36z"/>
	<path fill="#FFFFFF" d="M40.956,29.402c-0.159,0.011-0.323,0.016-0.487,0.017C40.633,29.418,40.797,29.413,40.956,29.402z"/>
	<path fill="#FFFFFF" d="M33.941,19.514c-0.095,0.107-0.216,0.18-0.35,0.233C33.725,19.693,33.846,19.62,33.941,19.514z"/>
	<path fill="#FFFFFF" d="M33.451,19.782c-0.1,0.025-0.205,0.045-0.32,0.049C33.246,19.827,33.351,19.808,33.451,19.782z"/>
	<path fill="#FFFFFF" d="M32.886,19.827c-0.057-0.004-0.113-0.006-0.173-0.014C32.773,19.821,32.829,19.823,32.886,19.827z"/>
	<path fill="#FFFFFF" d="M38.412,28.963c-0.178-0.104-0.35-0.222-0.51-0.374C38.062,28.741,38.234,28.859,38.412,28.963z"/>
	<path fill="#FFFFFF" d="M32.37,19.749c-0.053-0.012-0.103-0.02-0.157-0.033C32.268,19.729,32.317,19.737,32.37,19.749z"/>
	<path fill="#FFFFFF" d="M20.373,16.865c-0.051-0.015-0.102-0.028-0.151-0.047C20.271,16.837,20.322,16.851,20.373,16.865z"/>
	<path fill="#FFFFFF" d="M19.418,17.123c-0.044,0.051-0.097,0.091-0.145,0.138C19.322,17.214,19.375,17.174,19.418,17.123z"/>
</g>
<g>
	<path fill="#444444" d="M99.614,21.592c2.318,0,4.323,0.411,6.014,1.232c1.69,0.822,3.091,1.933,4.203,3.333
		c1.11,1.402,1.932,3.043,2.463,4.927c0.531,1.884,0.797,3.913,0.797,6.087c0,3.333-0.616,6.485-1.848,9.456
		c-1.232,2.971-2.911,5.557-5.036,7.754c-2.126,2.199-4.638,3.938-7.536,5.217c-2.898,1.279-6.04,1.92-9.42,1.92
		c-0.435,0-1.196-0.012-2.283-0.035c-1.087-0.025-2.331-0.135-3.731-0.326c-1.402-0.193-2.887-0.484-4.457-0.871
		c-1.57-0.385-3.056-0.916-4.456-1.594L86.861,6.014l11.231-1.739L93.6,22.969c0.966-0.435,1.931-0.772,2.898-1.015
		C97.464,21.713,98.502,21.592,99.614,21.592z M90.194,52.605c1.69,0,3.285-0.41,4.782-1.232c1.497-0.82,2.79-1.92,3.877-3.297
		c1.086-1.377,1.944-2.934,2.572-4.674c0.627-1.738,0.942-3.551,0.942-5.434c0-2.318-0.387-4.13-1.16-5.435
		c-0.773-1.304-2.199-1.956-4.275-1.956c-0.677,0-1.558,0.121-2.645,0.362c-1.087,0.242-2.065,0.75-2.935,1.521l-4.782,19.855
		c0.29,0.047,0.543,0.096,0.761,0.145s0.446,0.084,0.688,0.107c0.241,0.025,0.531,0.037,0.87,0.037
		C89.228,52.605,89.662,52.605,90.194,52.605z"/>
	<path fill="#444444" d="M115.99,45.576c0-3.09,0.543-6.086,1.63-8.984s2.62-5.471,4.601-7.717c1.98-2.246,4.384-4.058,7.21-5.434
		c2.826-1.377,5.953-2.065,9.383-2.065c1.69,0,3.261,0.242,4.71,0.725c1.449,0.483,2.717,1.185,3.804,2.102
		c1.087,0.918,1.932,2.041,2.536,3.369c0.604,1.329,0.906,2.838,0.906,4.529c0,2.706-0.604,5-1.812,6.883
		c-1.208,1.885-2.887,3.418-5.036,4.602c-2.15,1.184-4.699,2.041-7.645,2.572c-2.947,0.533-6.159,0.797-9.637,0.797
		c0.337,2.029,1.075,3.467,2.21,4.312c1.135,0.846,2.935,1.268,5.398,1.268c1.545,0,3.116-0.133,4.71-0.398s3.091-0.664,4.493-1.195
		l0.797,8.477c-1.353,0.533-3.08,1.016-5.181,1.449c-2.101,0.436-4.384,0.652-6.847,0.652c-2.996,0-5.52-0.424-7.572-1.268
		c-2.054-0.846-3.72-1.992-5-3.441c-1.281-1.449-2.21-3.141-2.79-5.072C116.279,49.805,115.99,47.75,115.99,45.576z M137.076,29.925
		c-2.464,0-4.626,0.882-6.485,2.645c-1.86,1.764-3.08,4.094-3.659,6.992c2.995-0.096,5.41-0.35,7.246-0.762
		c1.835-0.408,3.261-0.905,4.275-1.484c1.015-0.58,1.69-1.208,2.029-1.885c0.337-0.676,0.507-1.352,0.507-2.029
		C140.988,31.084,139.684,29.925,137.076,29.925z"/>
	<path fill="#444444" d="M152.22,45.576c0-3.09,0.543-6.086,1.63-8.984s2.62-5.471,4.601-7.717c1.98-2.246,4.384-4.058,7.21-5.434
		c2.826-1.377,5.953-2.065,9.384-2.065c1.689,0,3.26,0.242,4.709,0.725c1.449,0.483,2.717,1.185,3.805,2.102
		c1.086,0.918,1.932,2.041,2.535,3.369c0.604,1.329,0.906,2.838,0.906,4.529c0,2.706-0.605,5-1.812,6.883
		c-1.207,1.885-2.887,3.418-5.035,4.602c-2.15,1.184-4.699,2.041-7.645,2.572c-2.947,0.533-6.159,0.797-9.637,0.797
		c0.337,2.029,1.075,3.467,2.21,4.312c1.135,0.846,2.935,1.268,5.398,1.268c1.545,0,3.116-0.133,4.71-0.398
		c1.594-0.266,3.09-0.664,4.492-1.195l0.797,8.477c-1.354,0.533-3.08,1.016-5.182,1.449c-2.101,0.436-4.383,0.652-6.847,0.652
		c-2.996,0-5.52-0.424-7.572-1.268c-2.054-0.846-3.72-1.992-5-3.441c-1.281-1.449-2.21-3.141-2.79-5.072
		C152.509,49.805,152.22,47.75,152.22,45.576z M173.306,29.925c-2.464,0-4.626,0.882-6.485,2.645
		c-1.86,1.764-3.08,4.094-3.659,6.992c2.995-0.096,5.41-0.35,7.246-0.762c1.835-0.408,3.261-0.905,4.275-1.484
		c1.014-0.58,1.689-1.208,2.029-1.885c0.338-0.676,0.508-1.352,0.508-2.029C177.219,31.084,175.915,29.925,173.306,29.925z"/>
	<path fill="#444444" d="M215.405,31.665c-0.967-0.241-1.92-0.471-2.862-0.688s-2.331-0.326-4.166-0.326
		c-0.678,0-1.426,0.061-2.247,0.181c-0.821,0.121-1.497,0.253-2.028,0.398l-7.028,29.274h-10.797l8.695-36.085
		c2.076-0.676,4.407-1.315,6.992-1.92c2.584-0.604,5.494-0.906,8.731-0.906c1.207,0,2.548,0.109,4.021,0.326
		c1.473,0.217,2.765,0.568,3.877,1.051L215.405,31.665z"/>
	<path fill="#F85D5D" d="M252.794,37.244c0,3.528-0.58,6.75-1.739,9.674c-1.159,2.922-2.766,5.445-4.818,7.57
		c-2.054,2.127-4.518,3.781-7.391,4.965c-2.875,1.184-6.003,1.775-9.384,1.775c-1.643,0-3.286-0.145-4.928-0.436l-3.261,13.115
		H210.55l12.028-50.142c1.932-0.58,4.142-1.098,6.63-1.558c2.487-0.458,5.181-0.688,8.079-0.688c2.705,0,5.036,0.411,6.993,1.232
		c1.956,0.822,3.562,1.945,4.818,3.369c1.256,1.425,2.185,3.092,2.789,5C252.492,33.03,252.794,35.07,252.794,37.244z
		 M226.492,52.098c0.82,0.193,1.835,0.291,3.043,0.291c1.884,0,3.599-0.352,5.145-1.051c1.546-0.701,2.862-1.678,3.949-2.936
		c1.087-1.256,1.932-2.764,2.536-4.529c0.604-1.762,0.906-3.705,0.906-5.832c0-2.077-0.46-3.84-1.377-5.29
		c-0.919-1.449-2.513-2.174-4.782-2.174c-1.547,0-2.996,0.145-4.348,0.435L226.492,52.098z"/>
	<path fill="#F85D5D" d="M289.241,44.055c-0.677,2.754-0.869,5.52-0.58,8.297c0.29,2.779,0.845,5.254,1.667,7.428l-9.637,1.377
		c-0.29-0.58-0.557-1.135-0.798-1.668c-0.242-0.531-0.483-1.133-0.725-1.811c-1.353,1.111-2.851,2.029-4.492,2.754
		c-1.643,0.725-3.479,1.086-5.507,1.086c-2.416,0-4.481-0.424-6.195-1.268c-1.716-0.846-3.116-1.98-4.203-3.406
		c-1.087-1.424-1.872-3.09-2.354-5c-0.483-1.906-0.725-3.949-0.725-6.123c0-3.332,0.591-6.473,1.775-9.419
		c1.183-2.946,2.826-5.518,4.927-7.717c2.102-2.198,4.576-3.924,7.428-5.181c2.85-1.255,5.941-1.884,9.274-1.884
		c0.435,0,1.195,0.025,2.282,0.072c1.087,0.049,2.33,0.158,3.732,0.326c1.4,0.17,2.873,0.447,4.42,0.833
		c1.545,0.387,3.019,0.918,4.42,1.594L289.241,44.055z M281.705,30.722c-0.628-0.096-1.195-0.168-1.702-0.217
		c-0.508-0.047-1.123-0.072-1.848-0.072c-1.644,0-3.178,0.411-4.602,1.232c-1.426,0.822-2.67,1.896-3.731,3.224
		c-1.063,1.33-1.896,2.863-2.5,4.602c-0.604,1.738-0.906,3.551-0.906,5.434c0,2.32,0.387,4.156,1.16,5.508
		c0.771,1.354,2.197,2.029,4.274,2.029c1.111,0,2.113-0.219,3.008-0.652c0.893-0.436,1.848-1.16,2.861-2.174
		c0.097-1.207,0.254-2.475,0.472-3.805c0.217-1.328,0.445-2.547,0.688-3.658L281.705,30.722z"/>
	<path fill="#F85D5D" d="M335.397,22.39c-1.354,3.671-2.718,7.101-4.095,10.289c-1.376,3.188-2.814,6.22-4.311,9.095
		c-1.498,2.873-3.044,5.615-4.638,8.223c-1.594,2.609-3.286,5.193-5.072,7.754c-1.305,1.885-2.657,3.791-4.058,5.725
		c-1.401,1.932-2.96,3.67-4.674,5.217c-1.715,1.545-3.623,2.801-5.725,3.768c-2.101,0.967-4.528,1.449-7.282,1.449
		c-1.691,0-3.141-0.156-4.348-0.471c-1.208-0.314-2.342-0.736-3.405-1.268l3.261-8.479c0.966,0.387,1.835,0.689,2.608,0.906
		c0.772,0.217,1.714,0.326,2.826,0.326c1.69,0,3.297-0.543,4.818-1.631c1.521-1.086,2.79-2.549,3.805-4.383
		c-1.257-4.83-2.404-10.242-3.442-16.232c-1.039-5.989-1.751-12.752-2.138-20.288h11.087c0.047,1.884,0.145,3.961,0.289,6.231
		c0.146,2.271,0.314,4.554,0.508,6.848c0.192,2.294,0.41,4.529,0.652,6.703c0.241,2.174,0.507,4.129,0.797,5.869
		c2.318-3.479,4.358-7.344,6.123-11.594c1.763-4.25,3.417-8.937,4.963-14.057H335.397z"/>
</g>
<g>
</g>
<g>
</g>
<g>
</g>
<g>
</g>
<g>
</g>
<g>
</g>
</svg>
